<?xml version="1.0" encoding="UTF-8"?>
<svg width="32px" height="32px" viewBox="0 0 32 32" version="1.1" xmlns="http://www.w3.org/2000/svg" xmlns:xlink="http://www.w3.org/1999/xlink">
    <!-- Generator: Sketch 57.1 (83088) - https://sketch.com -->
    <title>logo_yellow@1x</title>
    <desc>Created with Sketch.</desc>
    <g id="成员管理" stroke="none" stroke-width="1" fill="none" fill-rule="evenodd">
        <g transform="translate(-24.000000, -16.000000)" fill="#FFB000" fill-rule="nonzero" id="头部">
            <g>
                <path d="M38.4498354,16 C38.5054124,16.0013665 38.5533914,16.0393157 38.5675172,16.0930848 C38.581643,16.146854 38.5585113,16.2034848 38.5107803,16.2319876 L38.5107803,16.2319876 L32.3238916,19.8454295 L32.2885042,19.8542763 L27.8542724,19.8542763 L27.8542724,44.1447446 L52.1447407,44.1447446 L52.1447407,19.8542763 L47.7105089,19.8542763 L47.6751215,19.8454295 L41.4882328,16.2319876 C41.4402219,16.2032848 41.4171642,16.1461495 41.4318046,16.0921629 C41.4464451,16.0381763 41.4952095,16.0005182 41.5511437,16 L41.5511437,16 L55.8741744,16 C55.9074537,16 55.93946,16.0127787 55.9630849,16.0362189 C55.9867097,16.0596592 56,16.0915623 56,16.1248426 L56,16.1248426 L56,47.8751613 C56,47.9441078 55.9441039,48 55.8751574,48 L55.8751574,48 L24.1248387,48 C24.0558922,48 24,47.9441078 24,47.8751613 L24,47.8751613 L24,16.1248426 C24,16.0558961 24.0558922,16 24.1248387,16 L24.1248387,16 Z M48.8641071,21.9667342 C48.9020208,21.9891194 48.9253391,22.029821 48.9254746,22.0738497 L48.9254746,37.8556257 L41.2680448,42.3439216 C41.2296285,42.3670576 41.1817067,42.3676203 41.1427576,42.3453929 C41.1038085,42.3231654 41.079917,42.2816201 41.0802909,42.2367765 L41.0802909,26.2397274 L48.740674,21.9647387 C48.7792915,21.9435907 48.8261934,21.944349 48.8641071,21.9667342 Z M31.2986414,21.944096 L31.2986414,21.944096 L38.9590201,26.2230167 L38.9590201,42.212202 C38.9587765,42.2567819 38.9347788,42.2978488 38.8960595,42.3199451 C38.8702466,42.334676 38.8405028,42.339485 38.8121326,42.3343975 L38.7712706,42.319347 L31.1128577,37.8349831 L31.1128577,22.053207 C31.1128577,22.0088808 31.1362534,21.9678486 31.1744753,21.9454008 L31.2150573,21.9302769 L31.2150573,21.9302769 L31.2577505,21.9298283 Z" id="logo_yellow"></path>
            </g>
        </g>
    </g>
</svg>