<?xml version="1.0" standalone="no"?><!DOCTYPE svg PUBLIC "-//W3C//DTD SVG 1.1//EN" "http://www.w3.org/Graphics/SVG/1.1/DTD/svg11.dtd"><svg t="1575018322985" class="icon" viewBox="0 0 1024 1024" version="1.1" xmlns="http://www.w3.org/2000/svg" p-id="3924" xmlns:xlink="http://www.w3.org/1999/xlink" width="200" height="200"><defs><style type="text/css"></style></defs><path d="M1022.902124 511.989429A511.40215 511.40215 0 1 1 325.273949 36.293814a499.186757 499.186757 0 0 1 372.452049 0 510.932328 510.932328 0 0 1 325.176126 475.695615M314.820391 404.223817a225.221319 225.221319 0 0 0 108.235435 197.149405 175.243916 175.243916 0 0 0 173.775719 1.585652 224.575313 224.575313 0 0 0 111.171827-198.735057 197.912867 197.912867 0 1 0-393.47662 0m198.852513 585.57543a475.695615 475.695615 0 0 0 369.985478-176.183561c-10.336102-84.803021-92.966192-157.038281-209.952077-193.038455a238.141447 238.141447 0 0 1-327.349057-2.995121c-113.814581 32.476503-197.149405 98.721522-216.70578 178.12158a475.695615 475.695615 0 0 0 384.021436 194.095557m0 0z" p-id="3925"></path></svg>