<svg xmlns="http://www.w3.org/2000/svg" viewBox="0 0 325.53 325.53"><defs><style>.cls-1{fill:#fff;}</style></defs><title>资源 1</title><g id="图层_2" data-name="图层 2"><g id="Layer_1" data-name="Layer 1"><path class="cls-1" d="M253.57,61.79V222.34L175.67,268a1.26,1.26,0,0,1-1.91-1.09V104.17l77.93-43.49A1.27,1.27,0,0,1,253.57,61.79Z"/><path class="cls-1" d="M72.36,61.58V222.13l77.91,45.62a1.27,1.27,0,0,0,1.91-1.09V104L74.25,60.47A1.27,1.27,0,0,0,72.36,61.58Z"/><path class="cls-1" d="M177.91,2.36l62.94,36.76.36.09h45.11V286.32H39.21V39.21H84.32l.36-.09L147.62,2.36A1.27,1.27,0,0,0,147,0H1.27A1.27,1.27,0,0,0,0,1.27v323a1.27,1.27,0,0,0,1.27,1.27h323a1.27,1.27,0,0,0,1.27-1.27V1.27A1.27,1.27,0,0,0,324.26,0H178.55A1.27,1.27,0,0,0,177.91,2.36Z"/></g></g></svg>